<svg width="208" height="32" viewBox="0 0 208 32" fill="none" xmlns="http://www.w3.org/2000/svg">
<path d="M130.571 19.6533H80.1526C76.8657 19.6533 74.2012 22.3168 74.2012 25.6024C74.2012 28.8881 76.8657 31.5517 80.1526 31.5517H130.571C133.858 31.5517 136.523 28.8881 136.523 25.6024C136.523 22.3168 133.858 19.6533 130.571 19.6533Z" fill="#FF4843"/>
<path d="M63.7588 19.6533H41.4217C38.1348 19.6533 35.4702 22.3168 35.4702 25.6024C35.4702 28.8881 38.1348 31.5517 41.4217 31.5517H63.7588C67.0457 31.5517 69.7102 28.8881 69.7102 25.6024C69.7102 22.3168 67.0457 19.6533 63.7588 19.6533Z" fill="#E8E7FE"/>
<path d="M93.8044 0.010376H41.4217C38.1348 0.010376 35.4702 2.67396 35.4702 5.95961C35.4702 9.24527 38.1348 11.9087 41.4217 11.9087H93.8044C97.0913 11.9087 99.7558 9.24527 99.7558 5.95961C99.7558 2.67396 97.0913 0.010376 93.8044 0.010376Z" fill="#8985F2"/>
<path d="M130.522 0.010376H110.329C107.042 0.010376 104.378 2.67396 104.378 5.95961C104.378 9.24527 107.042 11.9087 110.329 11.9087H130.522C133.809 11.9087 136.473 9.24527 136.473 5.95961C136.473 2.67396 133.809 0.010376 130.522 0.010376Z" fill="#E8E7FE"/>
<path d="M151.701 11.0663C150.953 11.0779 150.211 10.9241 149.529 10.6157C148.927 10.3458 148.416 9.90777 148.056 9.35425C147.688 8.76334 147.503 8.07676 147.525 7.38094V6.95295H149.498V7.38094C149.479 7.64915 149.522 7.9182 149.624 8.16685C149.727 8.41549 149.885 8.63692 150.088 8.81363C150.554 9.15498 151.124 9.32379 151.701 9.29118C152.245 9.3321 152.788 9.18934 153.242 8.88571C153.403 8.76263 153.533 8.60357 153.621 8.42128C153.709 8.239 153.754 8.03855 153.751 7.83598C153.762 7.57499 153.672 7.31983 153.499 7.12415C153.295 6.91743 153.045 6.76287 152.769 6.67362C152.389 6.53842 152.001 6.43002 151.606 6.34925L151.259 6.27265C150.614 6.13794 149.985 5.9309 149.385 5.65543C148.904 5.44256 148.489 5.10503 148.182 4.67778C147.888 4.20446 147.744 3.65328 147.768 3.09644C147.746 2.50943 147.903 1.92965 148.218 1.434C148.541 0.961555 148.993 0.592333 149.52 0.37075C150.148 0.111302 150.824 -0.0145031 151.503 0.00132861C152.198 -0.0132431 152.889 0.118764 153.53 0.388775C154.1 0.625116 154.587 1.02682 154.927 1.54212C155.286 2.11611 155.463 2.78498 155.436 3.46137V3.9119H153.463V3.46137C153.479 3.11986 153.398 2.78078 153.228 2.48372C153.068 2.23272 152.831 2.04 152.553 1.93408C152.216 1.81341 151.86 1.75539 151.503 1.76288C151.027 1.72293 150.551 1.84347 150.151 2.10528C150.006 2.21282 149.89 2.35382 149.811 2.51622C149.733 2.67862 149.695 2.8576 149.701 3.03787C149.693 3.27637 149.764 3.51071 149.903 3.70466C150.067 3.90514 150.28 4.06026 150.521 4.15518C150.857 4.29705 151.207 4.40423 151.566 4.47505L151.917 4.55163C152.598 4.68886 153.262 4.89725 153.9 5.17336C154.416 5.38898 154.868 5.7352 155.211 6.17804C155.533 6.64358 155.691 7.203 155.661 7.7684C155.673 8.37601 155.5 8.97286 155.166 9.4804C154.817 9.98783 154.333 10.3874 153.769 10.6337C153.118 10.9233 152.413 11.0707 151.701 11.0663Z" fill="#E8E7FE"/>
<path d="M156.666 10.8545V0.226562H158.594V4.24976H158.865C158.962 4.06581 159.092 3.90096 159.248 3.76318C159.447 3.58338 159.682 3.44687 159.937 3.36222C160.291 3.24352 160.663 3.1886 161.036 3.20003C161.578 3.18705 162.112 3.32764 162.577 3.60551C163.018 3.86978 163.374 4.25423 163.604 4.7138C163.857 5.22585 163.983 5.79167 163.969 6.36273V10.868H162.054V6.52491C162.072 6.29527 162.044 6.06441 161.972 5.8456C161.9 5.6268 161.786 5.42437 161.635 5.24993C161.477 5.10121 161.29 4.98682 161.085 4.91395C160.88 4.84107 160.663 4.81128 160.446 4.82643C160.191 4.81412 159.937 4.86008 159.703 4.96079C159.469 5.0615 159.261 5.21432 159.094 5.40762C158.745 5.87849 158.572 6.4576 158.608 7.04302V10.868L156.666 10.8545Z" fill="#E8E7FE"/>
<path d="M168.997 11.0663C168.297 11.081 167.605 10.9264 166.978 10.6158C166.388 10.3226 165.897 9.8639 165.564 9.29572C165.205 8.66192 165.026 7.9423 165.045 7.21429V6.97102C165.026 6.2445 165.205 5.52648 165.564 4.89408C165.898 4.32571 166.389 3.86582 166.978 3.56954C167.611 3.26713 168.304 3.11017 169.006 3.11017C169.707 3.11017 170.4 3.26713 171.033 3.56954C171.621 3.86708 172.112 4.32667 172.448 4.89408C172.804 5.52693 172.982 6.24492 172.961 6.97102V7.21429C172.982 7.94188 172.805 8.66147 172.448 9.29572C172.113 9.86292 171.622 10.3213 171.033 10.6158C170.401 10.929 169.702 11.0836 168.997 11.0663ZM168.997 9.36781C169.265 9.37641 169.532 9.33055 169.782 9.23299C170.032 9.13542 170.26 8.98818 170.452 8.80016C170.654 8.58119 170.81 8.32319 170.909 8.04197C171.008 7.76075 171.049 7.46224 171.028 7.16474V7.01606C171.049 6.7193 171.009 6.42152 170.911 6.14053C170.814 5.85953 170.66 5.60108 170.461 5.38065C170.061 5.01562 169.54 4.81321 168.999 4.81321C168.458 4.81321 167.936 5.01562 167.537 5.38065C167.335 5.59991 167.18 5.85795 167.08 6.1391C166.981 6.42024 166.94 6.71861 166.96 7.01606V7.16474C166.941 7.46215 166.982 7.76036 167.081 8.04143C167.18 8.3225 167.335 8.5806 167.537 8.80016C167.728 8.99156 167.956 9.14217 168.207 9.24284C168.457 9.34352 168.726 9.39217 168.997 9.38583V9.36781Z" fill="#E8E7FE"/>
<path d="M174.678 10.8546L173.615 3.32629H175.511L176.165 9.56609H176.44L177.413 3.32629H180.481L181.449 9.56609H181.724L182.391 3.32629H184.292L183.229 10.8546H180.053L179.08 4.61481H178.809L177.836 10.8546H174.678Z" fill="#E8E7FE"/>
<path d="M188.618 10.8545V3.32616H190.501V4.14161H190.776C190.927 3.86691 191.152 3.63932 191.424 3.48385C191.791 3.27894 192.208 3.18063 192.627 3.20002C193.078 3.17983 193.525 3.28928 193.916 3.51539C194.232 3.7138 194.489 3.99398 194.659 4.32633H194.934C195.106 4.00052 195.357 3.7232 195.664 3.5199C196.072 3.28068 196.543 3.16926 197.015 3.20002C197.457 3.1939 197.893 3.29599 198.286 3.49737C198.668 3.70262 198.982 4.01603 199.187 4.39842C199.431 4.86298 199.549 5.38333 199.529 5.90768V10.8635H197.615V6.04284C197.637 5.87689 197.621 5.70813 197.568 5.54921C197.516 5.39029 197.428 5.24536 197.311 5.12527C197.194 5.00519 197.052 4.91307 196.895 4.85585C196.738 4.79863 196.569 4.77779 196.403 4.79488C196.213 4.78391 196.024 4.81588 195.848 4.88843C195.672 4.96098 195.516 5.07223 195.389 5.21387C195.132 5.55687 195.006 5.98015 195.033 6.40778V10.8545H193.123V6.04284C193.135 5.87383 193.114 5.70405 193.059 5.54375C193.004 5.38345 192.917 5.23598 192.803 5.11026C192.529 4.88944 192.182 4.77786 191.83 4.79699C191.479 4.81611 191.146 4.96459 190.897 5.21387C190.639 5.55626 190.511 5.9796 190.537 6.40778V10.8545H188.618Z" fill="#E8E7FE"/>
<path d="M204.408 11.0663C203.717 11.0812 203.034 10.9167 202.426 10.5887C201.853 10.2804 201.383 9.81043 201.074 9.23716C200.743 8.60422 200.578 7.89705 200.597 7.18275V6.99805C200.573 6.2849 200.728 5.57709 201.047 4.93914C201.348 4.37106 201.806 3.90179 202.367 3.58756C202.973 3.26115 203.653 3.09665 204.341 3.11C205.018 3.09479 205.687 3.26624 206.273 3.60558C206.815 3.92979 207.256 4.39759 207.548 4.95716C207.86 5.58651 208.015 6.28223 207.999 6.98453V7.63779H202.556C202.559 7.8767 202.612 8.11242 202.711 8.32972C202.81 8.54701 202.954 8.74105 203.133 8.89927C203.505 9.22827 203.989 9.40238 204.485 9.38583C204.91 9.42076 205.332 9.2954 205.67 9.03442C205.912 8.81751 206.108 8.55395 206.246 8.25951L207.81 9.07948C207.637 9.38882 207.43 9.67752 207.192 9.93998C206.894 10.2724 206.53 10.5407 206.125 10.7284C205.585 10.9694 204.998 11.0849 204.408 11.0663ZM202.57 6.23215H206.093C206.081 6.03171 206.028 5.83582 205.938 5.65621C205.849 5.47661 205.723 5.31698 205.57 5.18692C205.23 4.91253 204.8 4.77161 204.363 4.79046C203.918 4.76602 203.48 4.90726 203.133 5.18692C202.826 5.45675 202.627 5.82759 202.57 6.23215Z" fill="#E8E7FE"/>
<path d="M150.958 29.6595C150.736 29.6711 150.515 29.6371 150.307 29.5596C150.099 29.4821 149.91 29.3628 149.75 29.2089C149.595 29.0439 149.475 28.8489 149.397 28.6359C149.32 28.4229 149.287 28.1963 149.3 27.97V23.717H147.417V22.1402H149.3V19.8019H151.21V22.1402H153.278V23.717H151.21V27.6366C151.21 27.943 151.354 28.0871 151.638 28.0871H153.093V29.6595H150.958Z" fill="#E8E7FE"/>
<path d="M154.386 29.6595V19.027H156.301V23.0502H156.576C156.674 22.8696 156.802 22.7066 156.954 22.5682C157.155 22.3885 157.389 22.2506 157.644 22.1627C158 22.0481 158.373 21.9948 158.747 22.005C159.288 21.9938 159.821 22.1326 160.288 22.406C160.725 22.6732 161.08 23.057 161.311 23.5143C161.563 24.0267 161.688 24.5922 161.676 25.1632V29.6685H159.766V25.3254C159.783 25.0958 159.755 24.8649 159.683 24.6461C159.611 24.4273 159.497 24.2248 159.347 24.0504C159.187 23.9014 158.999 23.7866 158.794 23.713C158.589 23.6394 158.37 23.6086 158.153 23.6224C157.898 23.6103 157.643 23.6568 157.409 23.7583C157.175 23.8599 156.967 24.0137 156.801 24.2081C156.452 24.6774 156.279 25.255 156.314 25.839V29.6595H154.386Z" fill="#E8E7FE"/>
<path d="M166.568 29.8578C165.877 29.8731 165.194 29.7085 164.586 29.3802C164.015 29.0688 163.546 28.5996 163.234 28.0286C162.903 27.3941 162.738 26.6855 162.757 25.9697V25.7895C162.734 25.0765 162.889 24.369 163.207 23.7306C163.51 23.1624 163.97 22.6932 164.532 22.379C165.136 22.0501 165.817 21.8854 166.505 21.9015C167.181 21.8841 167.848 22.0541 168.433 22.3926C168.977 22.7147 169.418 23.183 169.708 23.7441C170.02 24.3735 170.175 25.0692 170.159 25.7715V26.4248H164.712C164.716 26.6627 164.77 26.8972 164.869 27.1136C164.968 27.3299 165.111 27.5233 165.289 27.6817C165.66 28.0107 166.144 28.1849 166.64 28.1683C167.064 28.2028 167.486 28.0792 167.825 27.8214C168.066 27.6036 168.262 27.3403 168.402 27.0465L169.965 27.8664C169.793 28.1733 169.587 28.4603 169.352 28.7225C169.052 29.0553 168.687 29.3236 168.28 29.5109C167.744 29.7569 167.158 29.8756 166.568 29.8578ZM164.73 25.0146H168.253C168.24 24.8132 168.187 24.6165 168.096 24.4362C168.006 24.2559 167.88 24.0956 167.726 23.9649C167.384 23.6921 166.955 23.5528 166.519 23.5729C166.075 23.5502 165.637 23.6895 165.289 23.9649C164.982 24.2358 164.783 24.6087 164.73 25.0146Z" fill="#E8E7FE"/>
<path d="M178.08 29.8578C177.393 29.8684 176.713 29.7139 176.098 29.4072C175.512 29.1112 175.024 28.6529 174.692 28.0872C174.331 27.4479 174.151 26.7217 174.174 25.9877V25.776C174.151 25.0433 174.33 24.3185 174.692 23.681C175.023 23.1143 175.511 22.6558 176.098 22.361C176.712 22.0523 177.392 21.8976 178.08 21.9105C178.718 21.8939 179.351 22.0234 179.932 22.2889C180.429 22.527 180.859 22.8845 181.184 23.3296C181.504 23.7743 181.72 24.2856 181.815 24.8254L179.963 25.2218C179.925 24.9333 179.832 24.6549 179.688 24.4019C179.544 24.158 179.337 23.9573 179.089 23.8207C178.79 23.6711 178.459 23.5983 178.125 23.609C177.762 23.6037 177.404 23.6905 177.084 23.8612C176.772 24.0298 176.517 24.2889 176.354 24.6046C176.167 24.9789 176.076 25.3938 176.089 25.812V25.9652C176.077 26.3834 176.168 26.7981 176.354 27.1726C176.517 27.4883 176.772 27.7474 177.084 27.916C177.405 28.0854 177.763 28.1706 178.125 28.1638C178.363 28.1805 178.601 28.1492 178.826 28.0718C179.051 27.9944 179.259 27.8725 179.436 27.7132C179.748 27.3931 179.949 26.9807 180.008 26.5374L181.86 26.9879C181.733 27.5156 181.503 28.0131 181.184 28.4521C180.858 28.8961 180.428 29.2534 179.932 29.4928C179.35 29.7537 178.717 29.8785 178.08 29.8578Z" fill="#E8E7FE"/>
<path d="M186.414 29.8577C185.715 29.8697 185.023 29.7153 184.396 29.4071C183.808 29.1114 183.317 28.6533 182.981 28.0871C182.625 27.4526 182.447 26.7332 182.468 26.0057V25.7624C182.446 25.0348 182.624 24.3152 182.981 23.681C183.316 23.1138 183.807 22.6553 184.396 22.3609C185.029 22.0585 185.722 21.9016 186.423 21.9016C187.125 21.9016 187.817 22.0585 188.451 22.3609C189.039 22.6553 189.531 23.1138 189.865 23.681C190.222 24.3152 190.4 25.0348 190.379 25.7624V26.0057C190.399 26.7332 190.222 27.4526 189.865 28.0871C189.53 28.6533 189.039 29.1114 188.451 29.4071C187.818 29.7181 187.119 29.8726 186.414 29.8577ZM186.414 28.1547C186.684 28.1635 186.953 28.1177 187.204 28.0202C187.456 27.9226 187.685 27.7753 187.878 27.587C188.08 27.3684 188.235 27.1112 188.334 26.8308C188.433 26.5504 188.474 26.2528 188.455 25.9561V25.8029C188.475 25.5065 188.435 25.2091 188.336 24.9288C188.238 24.6484 188.084 24.391 187.883 24.172C187.691 23.981 187.462 23.8315 187.21 23.7331C186.959 23.6346 186.689 23.5893 186.419 23.5999C186.149 23.5915 185.881 23.6379 185.63 23.7362C185.379 23.8346 185.151 23.9828 184.959 24.172C184.757 24.3906 184.602 24.6479 184.503 24.9283C184.404 25.2086 184.363 25.5062 184.382 25.8029V25.9561C184.363 26.2528 184.404 26.5504 184.503 26.8308C184.602 27.1112 184.757 27.3684 184.959 27.587C185.151 27.7742 185.379 27.9209 185.629 28.0184C185.879 28.1159 186.146 28.1623 186.414 28.1547Z" fill="#E8E7FE"/>
<path d="M194.555 29.8576C193.951 29.8634 193.357 29.7018 192.84 29.3909C192.322 29.08 191.9 28.6318 191.622 28.0961C191.3 27.4461 191.145 26.726 191.171 26.0011V25.7578C191.145 25.0329 191.3 24.3129 191.622 23.6629C191.898 23.1251 192.319 22.6753 192.837 22.364C193.355 22.0527 193.95 21.8925 194.555 21.9013C194.942 21.89 195.329 21.9433 195.699 22.059C195.967 22.1447 196.217 22.2775 196.438 22.451C196.618 22.5954 196.77 22.7709 196.889 22.9691H197.159V19.0045H199.074V29.6594H197.19V28.7584H196.92C196.714 29.0702 196.441 29.3331 196.123 29.5287C195.641 29.7838 195.098 29.8978 194.555 29.8576ZM195.131 28.1862C195.402 28.1936 195.672 28.1473 195.925 28.0499C196.178 27.9524 196.409 27.8058 196.605 27.6185C196.811 27.3964 196.97 27.1343 197.072 26.8484C197.173 26.5625 197.215 26.2588 197.195 25.9561V25.8029C197.216 25.5008 197.176 25.1975 197.076 24.9116C196.976 24.6257 196.819 24.3633 196.614 24.1405C196.208 23.7751 195.682 23.5729 195.136 23.5729C194.59 23.5729 194.064 23.7751 193.658 24.1405C193.449 24.3613 193.289 24.623 193.186 24.9092C193.084 25.1954 193.042 25.4997 193.064 25.8029V25.9561C193.043 26.2592 193.085 26.5633 193.187 26.8493C193.29 27.1354 193.45 27.3973 193.658 27.6185C193.854 27.8064 194.085 27.9535 194.338 28.0509C194.591 28.1484 194.86 28.1944 195.131 28.1862Z" fill="#E8E7FE"/>
<path d="M204.03 29.8578C203.339 29.8727 202.656 29.7081 202.047 29.3802C201.475 29.0706 201.005 28.601 200.696 28.0286C200.363 27.3945 200.197 26.6859 200.214 25.9697V25.7895C200.196 25.0743 200.358 24.3661 200.687 23.7306C200.986 23.1616 201.445 22.692 202.007 22.379C202.612 22.0507 203.292 21.8861 203.98 21.9015C204.656 21.8841 205.323 22.0541 205.908 22.3926C206.453 22.7135 206.895 23.1822 207.183 23.7441C207.498 24.3727 207.652 25.069 207.634 25.7715V26.4248H202.178C202.18 26.6631 202.232 26.8983 202.332 27.115C202.431 27.3316 202.575 27.5247 202.755 27.6817C203.127 28.0107 203.61 28.1849 204.106 28.1683C204.529 28.2029 204.95 28.0793 205.287 27.8214C205.529 27.6048 205.726 27.3412 205.863 27.0465L207.431 27.8664C207.255 28.1865 207.044 28.4857 206.8 28.7585C206.502 29.0913 206.139 29.3596 205.733 29.5469C205.196 29.7789 204.614 29.8852 204.03 29.8578ZM202.192 25.0146H205.715C205.702 24.8137 205.649 24.6175 205.559 24.4373C205.469 24.257 205.344 24.0965 205.192 23.9649C204.837 23.71 204.411 23.5729 203.973 23.5729C203.536 23.5729 203.11 23.71 202.755 23.9649C202.448 24.2366 202.248 24.6088 202.192 25.0146Z" fill="#E8E7FE"/>
<path d="M23.382 1.7268L19.5661 1.16365C19.4693 1.15243 19.3718 1.17642 19.2912 1.23122L17.6603 3.3487C17.6129 3.41255 17.5796 3.4857 17.5625 3.56335C17.5454 3.641 17.545 3.72139 17.5612 3.79923C17.5703 3.83471 17.5703 3.87192 17.5611 3.90738C17.5519 3.94284 17.5338 3.97537 17.5086 4.00194C17.4834 4.02851 17.4518 4.04824 17.4169 4.05928C17.382 4.07031 17.3448 4.0723 17.3089 4.06504L15.9573 3.76769C15.8526 3.74386 15.7432 3.75027 15.6419 3.78615C15.5406 3.82204 15.4516 3.88595 15.3852 3.97043L10.105 10.7869C10.0569 10.85 9.98863 10.8947 9.91157 10.9135C9.8345 10.9324 9.7533 10.9243 9.6815 10.8905L7.67215 9.98946C7.58488 9.94937 7.48863 9.93286 7.39298 9.94156C7.29733 9.95025 7.20564 9.98386 7.12702 10.039L6.13135 10.7373C6.04863 10.7936 5.95231 10.8267 5.85246 10.833C5.7526 10.8394 5.65287 10.8187 5.56369 10.7734L5.0546 10.5166C4.9797 10.479 4.89724 10.4588 4.81343 10.4577C4.72961 10.4565 4.64664 10.4744 4.57074 10.51C4.49484 10.5455 4.428 10.5979 4.37525 10.663C4.32249 10.7281 4.2852 10.8044 4.26617 10.886L3.90125 12.4899C3.85912 12.6735 3.87558 12.8656 3.94831 13.0394C4.02103 13.2131 4.14638 13.3597 4.30672 13.4585L5.06811 13.909L7.5415 15.4318L8.74891 16.1752C8.91169 16.2733 9.1013 16.3174 9.29065 16.3012C9.47999 16.285 9.65938 16.2094 9.80315 16.0851L11.817 14.3145C11.8974 14.2441 11.9971 14.1996 12.1032 14.1867C12.2093 14.1739 12.3168 14.1933 12.4117 14.2424L13.0154 14.5488C13.1155 14.599 13.2286 14.6178 13.3396 14.6025C13.4505 14.5872 13.5543 14.5386 13.6371 14.4632L14.6598 13.5081C14.738 13.4329 14.8371 13.3832 14.944 13.3655C15.051 13.3478 15.1608 13.3629 15.259 13.409L16.7818 14.0983C16.8937 14.1494 17.0195 14.1612 17.1389 14.1318C17.2584 14.1023 17.3643 14.0333 17.4396 13.9361L18.1379 13.035L23.4361 6.23207C23.4983 6.15841 23.5402 6.06981 23.5577 5.975C23.5751 5.8802 23.5676 5.78247 23.5357 5.69147C23.5039 5.60048 23.4488 5.51937 23.3761 5.45616C23.3033 5.39294 23.2153 5.34981 23.1207 5.33102L21.9358 5.06521C21.8788 5.05355 21.8258 5.02736 21.7818 4.98919C21.7379 4.95101 21.7046 4.90213 21.6851 4.8473C21.6656 4.79247 21.6606 4.73354 21.6706 4.67621C21.6806 4.61888 21.7052 4.5651 21.7421 4.52007L23.5847 2.24041C23.6134 2.19491 23.6309 2.1433 23.6359 2.08976C23.6409 2.03623 23.6332 1.98226 23.6135 1.93224C23.5938 1.88223 23.5625 1.83757 23.5223 1.80187C23.4821 1.76618 23.434 1.74047 23.382 1.7268Z" fill="#8985F2"/>
<path d="M5.86594 15.4408C5.84349 15.4246 5.81632 15.4163 5.78865 15.417C5.76097 15.4178 5.73431 15.4277 5.71279 15.4451C5.69127 15.4625 5.67608 15.4865 5.66956 15.5134C5.66304 15.5403 5.66556 15.5687 5.67672 15.594L6.24889 17.0987C6.28275 17.2058 6.28275 17.3206 6.24889 17.4276L5.74881 19.3829C5.73307 19.4445 5.73578 19.5094 5.75661 19.5695C5.77743 19.6295 5.81545 19.6822 5.86594 19.7208L7.28961 20.8291C7.35156 20.8845 7.43176 20.9151 7.51487 20.9151C7.59799 20.9151 7.67819 20.8845 7.74014 20.8291L9.24039 19.5226C9.32458 19.4474 9.43006 19.4001 9.54224 19.3874L11.2317 19.1982C11.2585 19.1954 11.2837 19.1844 11.3039 19.1667C11.3242 19.149 11.3385 19.1255 11.3449 19.0994C11.3513 19.0733 11.3495 19.0458 11.3397 19.0208C11.33 18.9957 11.3127 18.9743 11.2903 18.9594L5.86594 15.4408Z" fill="#8985F2"/>
<path d="M5.34318 20.4552C5.29524 20.4177 5.23771 20.3944 5.17716 20.388C5.11661 20.3816 5.05549 20.3924 5.00078 20.4192L3.80238 21.0004C3.73363 21.033 3.6803 21.0912 3.65371 21.1625L1.09472 27.4699C1.09009 27.4861 1.09009 27.5033 1.09472 27.5195C1.10076 27.5349 1.11267 27.5474 1.12785 27.5542C1.14304 27.5609 1.16027 27.5614 1.17581 27.5555L1.75248 27.3348C1.76162 27.3304 1.77163 27.3281 1.78177 27.3281C1.79191 27.3281 1.80192 27.3304 1.81105 27.3348C1.8253 27.3432 1.83564 27.3569 1.83985 27.3729C1.84407 27.3889 1.84182 27.406 1.83358 27.4204L0.00894875 30.4344C0.00102451 30.4476 -0.00176945 30.4633 0.00109809 30.4785C0.00396563 30.4936 0.0122927 30.5072 0.0245057 30.5167C0.0367187 30.5261 0.0519696 30.5307 0.0673682 30.5297C0.0827667 30.5286 0.0972476 30.522 0.108065 30.511L6.7263 23.8567C6.75703 23.8293 6.78201 23.7961 6.7998 23.759C6.81759 23.7218 6.82783 23.6816 6.82992 23.6404L6.96057 21.9284C6.96377 21.8773 6.95482 21.8262 6.93446 21.7792C6.9141 21.7322 6.88291 21.6907 6.84344 21.6581L5.34318 20.4552Z" fill="#8985F2"/>
</svg>
